<svg xmlns="http://www.w3.org/2000/svg" width="432" height="186" viewBox="0 0 432 186" version="1.1">
	<path d="M 0 20 L 0 40 19.500 40 L 39 40 39 111 L 39 182 59 182 L 79 182 79 171.207 L 79 160.414 85.342 166.602 C 99.350 180.270, 123.058 187.137, 151 185.620 C 173.173 184.417, 189.923 179.101, 200.284 169.981 L 205 165.830 205 173.915 L 205 182 224.945 182 L 244.889 182 245.203 136.250 C 245.515 90.765, 245.531 90.466, 247.894 84.581 C 250.922 77.040, 256.805 70.627, 262.829 68.303 C 269.637 65.675, 281.183 65.933, 286.763 68.836 C 292.144 71.635, 296.545 77.653, 297.928 84.100 C 298.604 87.250, 299 106.277, 299 135.549 L 299 182 319 182 L 339 182 339.015 138.750 C 339.027 103.574, 339.314 94.287, 340.552 89 C 344.026 74.168, 353.419 66.489, 367.994 66.566 C 379.457 66.626, 385.570 70.465, 390.201 80.512 C 392.484 85.465, 392.502 85.834, 392.803 133.750 L 393.106 182 412.553 182 L 432 182 432 131.660 C 432 85.185, 431.852 80.740, 430.068 73.766 C 423.198 46.904, 403.648 33.412, 374.378 35.331 C 358.124 36.397, 344.138 42.953, 335.507 53.551 L 331.477 58.500 327.702 52.809 C 323.354 46.252, 314.628 39.883, 306.649 37.443 C 303.817 36.577, 297.225 35.628, 292 35.335 C 274.178 34.335, 259.818 39.268, 249.713 49.862 L 244.077 55.771 243.789 47.635 L 243.500 39.500 224.250 39.228 L 205 38.957 205 51.674 L 205 64.392 202.172 59.932 C 191.403 42.952, 165.620 33.638, 134.076 35.334 C 109.001 36.682, 90.695 44.950, 81.828 58.932 L 79 63.392 79 51.196 L 79 39 59.500 39 L 40 39 40 19.500 L 40 0 20 0 L 0 0 0 20 M 126.843 63.975 C 119.226 66.276, 115.533 70.521, 115.711 76.774 C 115.915 83.978, 123.099 87.112, 150.500 91.951 C 177.380 96.698, 191.994 101.666, 200.152 108.829 C 202.139 110.573, 204.042 112, 204.382 112 C 204.722 112, 205 104.575, 205 95.500 L 205 79 187.121 79 L 169.243 79 168.004 76.011 C 166.121 71.465, 159.753 66.301, 153.878 64.556 C 148.298 62.899, 131.592 62.540, 126.843 63.975 M 79 117.350 L 79 138 94.892 138 C 110.535 138, 110.792 138.035, 111.358 140.250 C 112.438 144.480, 118.008 149.878, 124.682 153.164 C 130.822 156.187, 132.164 156.448, 143.493 156.825 C 158.337 157.319, 165.555 155.645, 170.680 150.520 C 173.449 147.751, 174 146.458, 174 142.735 C 174 132.628, 165.931 128.536, 138 124.478 C 108.821 120.240, 90.386 112.418, 81.872 100.664 L 79 96.700 79 117.350" stroke="none" fill="#000000" fill-rule="evenodd"/>
</svg>