<svg xmlns="http://www.w3.org/2000/svg" width="1064" height="599" viewBox="0 0 1064 599" version="1.1">
	<path d="M 8.251 242.750 C 8.546 328.062, 8.753 338.373, 10.325 346.262 C 13.063 359.998, 16.749 371.707, 21.491 381.734 C 39.582 419.987, 74.997 442.378, 126.211 447.945 C 138.717 449.304, 167.330 449.301, 179.789 447.938 C 245.043 440.804, 284.002 407.897, 295.927 349.840 C 299.564 332.132, 299.993 319.789, 299.997 232.750 L 300 148 249.545 148 L 199.091 148 198.743 236.250 C 198.369 331.043, 198.579 327.121, 193.244 339.181 C 188.782 349.269, 177.808 357.445, 165.219 360.058 C 157.124 361.739, 142.879 360.762, 135.718 358.034 C 124.346 353.703, 116.470 345.193, 111.910 332.308 L 109.500 325.500 109.219 236.750 L 108.938 148 58.431 148 L 7.923 148 8.251 242.750 M 308.281 149.242 C 308.557 149.934, 335.891 218.112, 369.024 300.750 L 429.266 451 477.383 450.985 L 525.500 450.971 585.750 300.234 C 618.888 217.329, 646 149.160, 646 148.749 C 646 148.337, 621.319 148, 591.153 148 L 536.306 148 506.903 231.911 C 490.731 278.062, 477.303 315.628, 477.062 315.390 C 476.820 315.151, 463.755 277.504, 448.026 231.728 L 419.429 148.500 363.604 148.242 C 319.064 148.035, 307.881 148.237, 308.281 149.242 M 655 299.500 L 655 451 704.500 451 L 754 451 754 299.500 L 754 148 704.500 148 L 655 148 655 299.500 M 898 149.423 C 865.922 155.065, 839.133 168.403, 816.774 189.864 C 803.590 202.518, 795.315 213.719, 787.490 229.500 C 777.092 250.470, 772.437 268.472, 771.327 292 C 769.434 332.165, 782.399 370.388, 807.748 399.371 C 831.783 426.850, 869.613 445.968, 905.250 448.643 C 910.063 449.004, 914 449.682, 914 450.150 C 914 450.617, 917.825 451, 922.500 451 C 927.500 451, 931 450.588, 931 450 C 931 449.450, 933.362 448.998, 936.250 448.996 C 943.201 448.991, 958.328 446.515, 969.564 443.543 C 1004.166 434.393, 1034.503 410.999, 1054.815 377.804 L 1058.912 371.109 1055.706 369.182 C 1046.176 363.454, 976.554 324.696, 975.124 324.322 C 973.961 324.018, 972.733 325.131, 971.177 327.898 C 964.438 339.889, 952.599 350.269, 941.251 354.137 C 932.594 357.088, 918.305 357.357, 909.791 354.730 C 895.827 350.420, 883.897 337.879, 878.553 321.889 C 874.842 310.784, 873.917 293.965, 876.404 282.788 C 884.344 247.097, 917.845 230.008, 948.178 246.175 C 954.962 249.791, 965.307 260.271, 968.998 267.265 C 970.372 269.869, 971.863 272, 972.312 272 C 974.269 272, 1056 223.556, 1056 222.396 C 1056 218.858, 1040.992 198.851, 1030.572 188.500 C 1010.805 168.861, 991.311 158.125, 963 151.284 C 953.587 149.010, 950.066 148.714, 929 148.425 C 912.668 148.202, 903.212 148.506, 898 149.423" stroke="none" fill="#000000" fill-rule="evenodd"/>
</svg>